<svg xmlns="http://www.w3.org/2000/svg" version="1.1" xmlns:xlink="http://www.w3.org/1999/xlink" xmlns:svgjs="http://svgjs.dev/svgjs" width="1000" height="1000" viewBox="0 0 1000 1000"><rect width="1000" height="1000" fill="#8dbdff"></rect><g transform="matrix(0.7,0,0,0.7,149.57251135176045,242.95829959514168)"><svg viewBox="0 0 336 247" data-background-color="#8dbdff" preserveAspectRatio="xMidYMid meet" height="735" width="1000" xmlns="http://www.w3.org/2000/svg" xmlns:xlink="http://www.w3.org/1999/xlink"><defs></defs><g id="tight-bounds" transform="matrix(1,0,0,1,0.20519455115498886,-0.09999999999999432)"><svg viewBox="0 0 335.58961089769 247.2" height="247.2" width="335.58961089769"><g><svg viewBox="0 0 395.52 291.3455626306845" height="247.2" width="335.58961089769"><g transform="matrix(1,0,0,1,0,212.68122068877142)"><svg viewBox="0 0 395.52 78.66434194191308" height="78.66434194191308" width="395.52"><g><svg viewBox="0 0 395.52 78.66434194191308" height="78.66434194191308" width="395.52"><g><rect width="84.30396009870744" height="3.826181633289362" y="63.641064886920496" fill="#374151" data-fill-palette-color="tertiary"></rect><rect width="84.30396009870744" height="3.826181633289362" y="63.641064886920496" x="311.21603990129256" fill="#374151" data-fill-palette-color="tertiary"></rect></g><g><svg viewBox="0 0 395.52 42.427787179119456" height="42.427787179119456" width="395.52"><g transform="matrix(1,0,0,1,0,0)"><svg width="395.52" viewBox="0.73 -36.04 340.45 36.53" height="42.427787179119456" data-palette-color="#374151"><path d="M27.37 0L23.68-9.96 7.54-9.96 3.88 0 0.73 0 14.18-35.55 17.04-35.55 30.49 0 27.37 0ZM15.6-31.88L8.47-12.52 22.73-12.52 15.6-31.88ZM62.18-35.55L62.18 0 59.18 0 38.74-30.42 38.74 0 35.72 0 35.72-35.55 38.74-35.55 59.2-5.1 59.2-35.55 62.18-35.55ZM80.93 0L71.21 0 71.21-35.55 81.15-35.55Q85.52-35.55 88.98-33.56 92.45-31.57 94.39-27.86 96.33-24.15 96.33-19.41L96.33-19.41 96.33-16.14Q96.33-11.38 94.4-7.69 92.48-4 88.97-2 85.47 0 80.93 0L80.93 0ZM81.2-32.98L74.21-32.98 74.21-2.54 80.95-2.54Q86.57-2.54 89.96-6.26 93.35-9.99 93.35-16.33L93.35-16.33 93.35-19.46Q93.35-25.59 90.01-29.27 86.66-32.96 81.2-32.98L81.2-32.98ZM125.82 0L117.23-14.79 106.9-14.79 106.9 0 103.87 0 103.87-35.55 115.42-35.55Q121.11-35.55 124.31-32.79 127.51-30.03 127.51-25.07L127.51-25.07Q127.51-21.66 125.51-19.04 123.5-16.43 120.13-15.43L120.13-15.43 129.02-0.32 129.02 0 125.82 0ZM106.9-32.98L106.9-17.36 116.11-17.36Q119.89-17.36 122.18-19.51 124.48-21.66 124.48-25.07L124.48-25.07Q124.48-28.83 122.09-30.91 119.69-32.98 115.37-32.98L115.37-32.98 106.9-32.98ZM155.31-19.58L155.31-17.04 138.69-17.04 138.69-2.54 157.8-2.54 157.8 0 135.68 0 135.68-35.55 157.68-35.55 157.68-32.98 138.69-32.98 138.69-19.58 155.31-19.58ZM167.79-35.55L167.79 0 164.78 0 164.78-35.55 167.79-35.55ZM189.12-35.55L200.3-4.39 200.5-3.64 200.71-4.39 211.9-35.55 215.19-35.55 201.96 0 199.08 0 185.85-35.55 189.12-35.55ZM241.46 0L237.77-9.96 221.64-9.96 217.97 0 214.82 0 228.28-35.55 231.13-35.55 244.58 0 241.46 0ZM229.69-31.88L222.56-12.52 236.82-12.52 229.69-31.88ZM269.92-8.74L269.92-8.74Q269.92-11.69 267.85-13.42 265.77-15.14 260.26-16.69 254.74-18.24 252.2-20.07L252.2-20.07Q248.59-22.66 248.59-26.86L248.59-26.86Q248.59-30.93 251.94-33.48 255.3-36.04 260.52-36.04L260.52-36.04Q264.06-36.04 266.86-34.67 269.66-33.3 271.19-30.86 272.73-28.42 272.73-25.42L272.73-25.42 269.7-25.42Q269.7-29.05 267.21-31.26 264.72-33.47 260.52-33.47L260.52-33.47Q256.45-33.47 254.03-31.65 251.61-29.83 251.61-26.9L251.61-26.9Q251.61-24.19 253.79-22.49 255.96-20.78 260.74-19.47 265.53-18.16 268-16.76 270.46-15.36 271.71-13.4 272.95-11.45 272.95-8.79L272.95-8.79Q272.95-4.59 269.59-2.05 266.24 0.49 260.74 0.49L260.74 0.49Q256.98 0.49 253.85-0.85 250.71-2.2 249.09-4.61 247.46-7.03 247.46-10.16L247.46-10.16 250.47-10.16Q250.47-6.4 253.27-4.22 256.08-2.05 260.74-2.05L260.74-2.05Q264.89-2.05 267.41-3.88 269.92-5.71 269.92-8.74ZM283.08-35.55L283.08 0 280.08 0 280.08-35.55 283.08-35.55ZM295.75-35.55L295.75-2.54 313.3-2.54 313.3 0 292.72 0 292.72-35.55 295.75-35.55ZM338.69-19.58L338.69-17.04 322.06-17.04 322.06-2.54 341.18-2.54 341.18 0 319.06 0 319.06-35.55 341.06-35.55 341.06-32.98 322.06-32.98 322.06-19.58 338.69-19.58Z" opacity="1" transform="matrix(1,0,0,1,0,0)" fill="#374151" class="undefined-text-0" data-fill-palette-color="primary" id="text-0"></path></svg></g></svg></g><g transform="matrix(1,0,0,1,84.30396009870744,52.443969465217265)"><svg viewBox="0 0 226.9120798025851 26.22037247669582" height="26.22037247669582" width="226.9120798025851"><g transform="matrix(1,0,0,1,8,0)"><svg width="210.9120798025851" viewBox="2 -37.7 403.76 50.2" height="26.22037247669582" data-palette-color="#374151"><path d="M23.3-34.1L23.3-34.1 22.7-31.25Q18.85-32.1 16.15-32.1L16.15-32.1Q6.45-32.1 6.45-26.2L6.45-26.2Q6.45-23.95 7.88-22.75 9.3-21.55 11.48-20.78 13.65-20 16.15-19.38 18.65-18.75 20.8-17.7L20.8-17.7Q25.85-15.2 25.85-10.05 25.85-4.9 22-2.25L22-2.25Q18.7 0.05 13.3 0.05L13.3 0.05Q6.6 0.05 2-3L2-3 3.3-5.55Q4.65-4.6 7.15-3.78 9.65-2.95 12-2.95L12-2.95Q16.6-2.95 19.25-4.45L19.25-4.45Q22.45-6.3 22.45-9.75L22.45-9.75Q22.45-12.3 21.03-13.73 19.6-15.15 17.43-16.03 15.25-16.9 12.75-17.53 10.25-18.15 8.1-19.1L8.1-19.1Q3.05-21.3 3.05-25.65 3.05-30 6.05-32.55 9.05-35.1 14.55-35.1L14.55-35.1Q18.8-35.1 23.3-34.1ZM30.5-6.4L30.5-6.4Q29.6-8.8 29.6-12L29.6-12Q29.6-18.15 33.05-21.68 36.5-25.2 41.7-25.2L41.7-25.2Q49.85-25.2 52.4-18.6L52.4-18.6Q53.35-16.2 53.35-13L53.35-13Q53.35-6.85 49.9-3.33 46.45 0.2 41.25 0.2L41.25 0.2Q33.1 0.2 30.5-6.4ZM32.85-12.35Q32.85-7.75 35.22-5.23 37.6-2.7 41.35-2.7 45.1-2.7 47.6-5.38 50.1-8.05 50.1-12.65 50.1-17.25 47.75-19.78 45.4-22.3 41.62-22.3 37.85-22.3 35.35-19.63 32.85-16.95 32.85-12.35ZM59.19-25L59.19-30.9Q59.19-37.7 66.69-37.7L66.69-37.7Q68.64-37.7 70.14-37.3L70.14-37.3 69.64-34.5Q67.94-34.75 66.77-34.75 65.59-34.75 64.64-34.35L64.64-34.35Q62.44-33.35 62.44-29.75L62.44-29.75 62.44-25 68.64-25 68.64-22.1 62.44-22.1 62.44 0 59.19 0 59.19-22.1 56.39-22.1 56.84-25 59.19-25ZM83.09-3.6L83.69-0.9Q82.79 0 80.44 0L80.44 0Q77.14 0 75.99-1.7L75.99-1.7Q74.04-3.55 74.04-6.7L74.04-6.7 74.04-22.1 71.24-22.1 71.69-25 74.04-25 74.04-29.95 77.29-30.25 77.29-25 83.09-25 83.09-22.1 77.29-22.1 77.29-5.9Q77.29-3 80.29-3L80.29-3Q81.59-3 83.09-3.6L83.09-3.6ZM109.59 0L103.69-20.1 96.99 0 93.99 0 85.74-25 89.39-25.25 95.74-4.1 102.24-25 105.39-25.25 110.99-4.05 118.34-25 122.19-25.25 112.59 0 109.59 0ZM126.19-19.9L125.29-22.3Q130.74-25 134.84-25.15L134.84-25.15Q138.09-25.15 139.86-24.33 141.64-23.5 142.74-22.03 143.84-20.55 143.84-17.9L143.84-17.9 143.84 0 140.59 0 140.59-1.9Q133.74 0.2 131.79 0.2L131.79 0.2Q131.69 0.2 131.64 0.2L131.64 0.2Q127.14 0.2 125.49-2.55L125.49-2.55Q124.89-3.55 124.81-4.5 124.74-5.45 124.74-6.1L124.74-6.1Q124.74-7.9 126.14-9.33 127.54-10.75 129.49-11.25L129.49-11.25Q132.79-12.1 140.59-12.75L140.59-12.75 140.59-16.8Q140.59-22.25 134.89-22.25L134.89-22.25Q130.89-22.25 126.19-19.9L126.19-19.9ZM127.79-5.7L127.79-5.7Q127.79-2.1 132.74-2.1L132.74-2.1Q136.69-2.1 140.59-3.8L140.59-3.8 140.59-10.95Q132.79-9.85 130.94-9.25L130.94-9.25Q127.79-8.25 127.79-5.7ZM163.19-24.5L161.89-21.5Q161.09-21.95 160.19-21.95 159.28-21.95 159.19-21.9L159.19-21.9Q157.28-21.9 155.36-20.53 153.44-19.15 152.09-17.45L152.09-17.45 152.09 0 148.84 0 148.84-25 152.09-25.25 152.09-19.65Q153.94-22 155.24-22.95L155.24-22.95Q157.64-24.75 159.84-24.85L159.84-24.85Q160.14-24.9 160.94-24.9 161.74-24.9 163.19-24.5L163.19-24.5ZM166.48-12.3L166.48-11.5Q166.48-2.7 174.88-2.7L174.88-2.7Q178.43-2.7 181.38-3.65L181.38-3.65Q182.13-3.9 182.43-4.05L182.43-4.05 183.18-1.4Q181.43-0.35 176.83 0.1L176.83 0.1Q175.53 0.2 174.08 0.2L174.08 0.2Q169.88 0.2 167.08-1.9L167.08-1.9Q163.23-4.75 163.23-11.4 163.23-18.05 166.71-21.63 170.18-25.2 175.13-25.2 180.08-25.2 182.58-22L182.58-22Q184.48-19.45 184.48-15.25L184.48-15.25Q184.48-14.25 184.38-13.15L184.38-13.15 166.53-13.15Q166.48-12.75 166.48-12.3L166.48-12.3ZM175.33-22.1L175.33-22.1Q172.23-22.1 170.03-20.23 167.83-18.35 166.98-15.4L166.98-15.4 181.53-15.4Q181.28-20.95 177.23-21.85L177.23-21.85Q176.33-22.1 175.33-22.1ZM205.23 0L205.23-35 214.23-35Q224.73-35 227.93-26.2L227.93-26.2Q229.13-23 229.13-17.78 229.13-12.55 227.98-8.97 226.83-5.4 224.73-3.4 222.63-1.4 219.65-0.7 216.68 0 212.98 0L212.98 0 205.23 0ZM213.98-32.25L208.63-32.25 208.63-2.75 212.73-2.75Q215.33-2.75 217.73-3.2L217.73-3.2Q225.73-4.6 225.73-18.05L225.73-18.05Q225.73-25.6 222.23-29.2L222.23-29.2Q219.18-32.25 213.98-32.25L213.98-32.25ZM236.43-12.3L236.43-11.5Q236.43-2.7 244.83-2.7L244.83-2.7Q248.38-2.7 251.33-3.65L251.33-3.65Q252.08-3.9 252.38-4.05L252.38-4.05 253.13-1.4Q251.38-0.35 246.78 0.1L246.78 0.1Q245.48 0.2 244.03 0.2L244.03 0.2Q239.83 0.2 237.03-1.9L237.03-1.9Q233.18-4.75 233.18-11.4 233.18-18.05 236.65-21.63 240.13-25.2 245.08-25.2 250.03-25.2 252.53-22L252.53-22Q254.43-19.45 254.43-15.25L254.43-15.25Q254.43-14.25 254.33-13.15L254.33-13.15 236.48-13.15Q236.43-12.75 236.43-12.3L236.43-12.3ZM245.28-22.1L245.28-22.1Q242.18-22.1 239.98-20.23 237.78-18.35 236.93-15.4L236.93-15.4 251.48-15.4Q251.23-20.95 247.18-21.85L247.18-21.85Q246.28-22.1 245.28-22.1ZM265.62 0L256.37-25 260.02-25.25 267.27-3.85 275.12-25 278.72-25.25 268.62 0 265.62 0ZM283.42-12.3L283.42-11.5Q283.42-2.7 291.82-2.7L291.82-2.7Q295.37-2.7 298.32-3.65L298.32-3.65Q299.07-3.9 299.37-4.05L299.37-4.05 300.12-1.4Q298.37-0.35 293.77 0.1L293.77 0.1Q292.47 0.2 291.02 0.2L291.02 0.2Q286.82 0.2 284.02-1.9L284.02-1.9Q280.17-4.75 280.17-11.4 280.17-18.05 283.65-21.63 287.12-25.2 292.07-25.2 297.02-25.2 299.52-22L299.52-22Q301.42-19.45 301.42-15.25L301.42-15.25Q301.42-14.25 301.32-13.15L301.32-13.15 283.47-13.15Q283.42-12.75 283.42-12.3L283.42-12.3ZM292.27-22.1L292.27-22.1Q289.17-22.1 286.97-20.23 284.77-18.35 283.92-15.4L283.92-15.4 298.47-15.4Q298.22-20.95 294.17-21.85L294.17-21.85Q293.27-22.1 292.27-22.1ZM309.47 0L306.22 0 306.22-37.25 309.47-37.5 309.47 0ZM314.92-6.4L314.92-6.4Q314.02-8.8 314.02-12L314.02-12Q314.02-18.15 317.47-21.68 320.92-25.2 326.12-25.2L326.12-25.2Q334.27-25.2 336.82-18.6L336.82-18.6Q337.77-16.2 337.77-13L337.77-13Q337.77-6.85 334.32-3.33 330.87 0.2 325.67 0.2L325.67 0.2Q317.52 0.2 314.92-6.4ZM317.27-12.35Q317.27-7.75 319.64-5.23 322.02-2.7 325.77-2.7 329.52-2.7 332.02-5.38 334.52-8.05 334.52-12.65 334.52-17.25 332.17-19.78 329.82-22.3 326.04-22.3 322.27-22.3 319.77-19.63 317.27-16.95 317.27-12.35ZM358.61-3.5Q356.96-1.85 354.94-1.03 352.91-0.2 351.46-0.1 350.01 0 348.61 0 347.21 0 345.56-0.25L345.56-0.25 345.56 12.25 342.31 12.5 342.31-23.7Q343.41-24.05 345.69-24.75 347.96-25.45 350.54-25.45 353.11-25.45 354.99-25.03 356.86-24.6 358.46-23.4L358.46-23.4Q362.21-20.5 362.21-13.8 362.21-7.1 358.61-3.5L358.61-3.5ZM345.56-21.7L345.56-2.8Q347.06-2.45 348.76-2.45L348.76-2.45Q353.66-2.45 356.31-5.35 358.96-8.25 358.96-13.5 358.96-18.75 356.26-21L356.26-21Q354.36-22.55 351.39-22.55 348.41-22.55 345.56-21.7L345.56-21.7ZM369.11-12.3L369.11-11.5Q369.11-2.7 377.51-2.7L377.51-2.7Q381.06-2.7 384.01-3.65L384.01-3.65Q384.76-3.9 385.06-4.05L385.06-4.05 385.81-1.4Q384.06-0.35 379.46 0.1L379.46 0.1Q378.16 0.2 376.71 0.2L376.71 0.2Q372.51 0.2 369.71-1.9L369.71-1.9Q365.86-4.75 365.86-11.4 365.86-18.05 369.34-21.63 372.81-25.2 377.76-25.2 382.71-25.2 385.21-22L385.21-22Q387.11-19.45 387.11-15.25L387.11-15.25Q387.11-14.25 387.01-13.15L387.01-13.15 369.16-13.15Q369.11-12.75 369.11-12.3L369.11-12.3ZM377.96-22.1L377.96-22.1Q374.86-22.1 372.66-20.23 370.46-18.35 369.61-15.4L369.61-15.4 384.16-15.4Q383.91-20.95 379.86-21.85L379.86-21.85Q378.96-22.1 377.96-22.1ZM405.76-24.5L404.46-21.5Q403.66-21.95 402.76-21.95 401.86-21.95 401.76-21.9L401.76-21.9Q399.86-21.9 397.93-20.53 396.01-19.15 394.66-17.45L394.66-17.45 394.66 0 391.41 0 391.41-25 394.66-25.25 394.66-19.65Q396.51-22 397.81-22.95L397.81-22.95Q400.21-24.75 402.41-24.85L402.41-24.85Q402.71-24.9 403.51-24.9 404.31-24.9 405.76-24.5L405.76-24.5Z" opacity="1" transform="matrix(1,0,0,1,0,0)" fill="#374151" class="undefined-text-1" data-fill-palette-color="secondary" id="text-1"></path></svg></g></svg></g></svg></g></svg></g><g transform="matrix(1,0,0,1,101.43557194171208,0)"><svg viewBox="0 0 192.64885611657581 192.64885611657581" height="192.64885611657581" width="192.64885611657581"><g><svg></svg></g><g id="icon-0"><svg viewBox="0 0 192.64885611657581 192.64885611657581" height="192.64885611657581" width="192.64885611657581"><g><path d="M0 96.324c0-53.199 43.126-96.324 96.324-96.324 53.199 0 96.324 43.126 96.325 96.324 0 53.199-43.126 96.324-96.325 96.325-53.199 0-96.324-43.126-96.324-96.325zM96.324 188.823c51.085 0 92.498-41.413 92.499-92.499 0-51.085-41.413-92.498-92.499-92.498-51.085 0-92.498 41.413-92.498 92.498 0 51.085 41.413 92.498 92.498 92.499z" data-fill-palette-color="tertiary" fill="#374151" stroke="transparent"></path></g><g transform="matrix(1,0,0,1,39.559613659687564,39.56024437283963)"><svg viewBox="0 0 113.52962879720069 113.52836737089656" height="113.52836737089656" width="113.52962879720069"><g><svg xmlns="http://www.w3.org/2000/svg" xmlns:xlink="http://www.w3.org/1999/xlink" version="1.1" x="0" y="0" viewBox="4.967 5 90.001 90" enable-background="new 0 0 100 100" xml:space="preserve" height="113.52836737089656" width="113.52962879720069" class="icon-fi-0" data-fill-palette-color="accent" id="fi-0"><g fill="#374151" data-fill-palette-color="accent"><polygon points="81.588,69.219 76.042,77.733 49.901,5 30.566,58.797 24.486,43.546 4.967,95 17.555,95 45,95 64.794,95 82.249,95    94.968,95  " fill="#374151" data-fill-palette-color="accent"></polygon></g></svg></g></svg></g></svg></g></svg></g><g></g></svg></g></svg><rect width="335.58961089769" height="247.2" fill="none" stroke="none" visibility="hidden"></rect></g></svg></g></svg>